<svg xmlns="http://www.w3.org/2000/svg" viewBox="0 0 441.16 441.17"><defs><style>.a{fill:#fff;}</style></defs><title>trygg_e-handel_bw</title><path d="M0,220.59C0,342.22,99,441.17,220.57,441.17s220.59-98.95,220.59-220.58S342.19,0,220.57,0,0,99,0,220.59Z"/><path class="a" d="M220.57,351.81c-72.35,0-131.22-58.87-131.22-131.23S148.22,89.35,220.57,89.35,351.8,148.22,351.8,220.58,292.93,351.81,220.57,351.81Z"/><path class="a" d="M104.14,66.47,130.51,99l-9.65,7.82L94.49,74.29,83.79,83l-7-8.63,30.6-24.87,8.36,7.55Z"/><path class="a" d="M186.55,69.76l-11,6.58L158.67,62.71l-3.17,1.21,6.47,17L150.5,85.3,131.65,35.79l16.26-6.19c11.27-4.3,20-1.36,23.84,8.82,2.6,6.82,1.27,12.66-3.28,17.36ZM150.29,39.29l-3.71,1.41,5.49,14.42,3.57-1.36c4.93-1.87,6.85-5.57,5.05-10.3S155.28,37.38,150.29,39.29Z"/><path class="a" d="M218.64,49.6l.88,19.48-12.41.57-.87-19.33L187.6,18.88l13-2.51,11.83,21.52,9.62-22L235,15.35Z"/><path class="a" d="M264,76.58c-15.21-4.32-20.6-17.34-16.14-33.07s16.62-23.93,31.42-19.74a29.45,29.45,0,0,1,13.59,7.93l-4.72,10.55a23.59,23.59,0,0,0-11.55-8c-8.27-2.34-14.14,3-16.84,12.53s-.46,17.51,7.81,19.85a12.62,12.62,0,0,0,6.92.22l2.57-9.09-8.33-2.36L270,45.64l20.08,5.69-7,24.82A31.47,31.47,0,0,1,264,76.58Z"/><path class="a" d="M310.62,100.31C297.83,91,297.28,76.92,306.9,63.7s23.87-16.7,36.31-7.65a29.39,29.39,0,0,1,10,12.13l-8.08,8.27A23.65,23.65,0,0,0,337.07,65c-6.95-5.06-14.31-2.06-20.14,5.94s-6.48,16.27.46,21.33a12.54,12.54,0,0,0,6.43,2.58l5.56-7.63-7-5.1L327,73.39l16.87,12.28-15.18,20.85A31.35,31.35,0,0,1,310.62,100.31Z"/><path class="a" d="M35.16,294.8l47.72-23,13.48,28-9.48,4.57-8.21-17.05L70,291.51l6.27,13-9.07,6.14-7-14.46-10.3,5,8.5,17.63-9.48,4.57Z"/><path class="a" d="M77.22,334.27,85.55,327l13,14.86-8.33,7.27Z"/><path class="a" d="M124,395.93l11.37-18.42-14.69-9.07-11.37,18.41L98.8,380.37l27.82-45.07,10.51,6.49-10.4,16.86,14.69,9.06,10.4-16.86,10.51,6.49L134.5,402.41Z"/><path class="a" d="M195.63,420.25l-1.55-12-16.82-3.16-5.45,10.13L160,413l27.45-49,13.35,2.53,7.48,53.9Zm-4.69-41.82L182,395.49l11.06,2.09Z"/><path class="a" d="M266,416.15l-24.86-27.8,5.51,31.23-11.3,2-9.23-52.16,11.81-2.09,23.22,26L256,364.13l11.3-2,9.23,52.15Z"/><path class="a" d="M320.55,394.4l-15,9L278.28,358,293,349.17c14.86-8.92,28.15-4.45,36.26,9S335,385.73,320.55,394.4ZM298,358.08l-3.84,2.3,16.77,27.91,3.84-2.31c7.55-4.54,9.73-11.58,3.87-21.31C312.87,355.12,305.21,353.73,298,358.08Z"/><path class="a" d="M364.32,360.93l-40.6-34,19.95-23.8,8.05,6.75-12.15,14.5L347,330.6l9.28-11.08,9.31,5.74-10.29,12.29,8.76,7.35,12.57-15,8.06,6.76Z"/><path class="a" d="M399.25,311.79,350.52,291l4.84-11.37L393.64,296l6-14.09,11.1,2.93Z"/><polygon class="a" points="47.7 188.04 40.69 209.69 17.93 209.69 36.34 223.08 29.32 244.72 47.72 231.34 66.14 244.72 59.1 223.08 77.5 209.68 54.75 209.69 47.7 188.04"/><polygon class="a" points="89.01 103.82 71.86 118.78 52.34 107.08 61.26 128.02 44.11 142.98 66.77 140.97 75.69 161.91 80.78 139.72 103.46 137.7 83.94 126.02 89.01 103.82"/><polygon class="a" points="394.61 188.04 401.62 209.69 424.38 209.71 405.98 223.08 412.99 244.72 394.6 231.34 376.18 244.72 383.22 223.08 364.79 209.68 387.55 209.69 394.61 188.04"/><path d="M295.29,322.15a10.79,10.79,0,0,0,10.79-10.78V205.3a10.79,10.79,0,0,0-10.79-10.78H147a10.79,10.79,0,0,0-10.79,10.78V311.37A10.79,10.79,0,0,0,147,322.15Z"/><path class="a" d="M230.08,256.28v26.18a9,9,0,0,1-17.89.6q0-.3,0-.6V256.28a14,14,0,1,1,19.71-1.82A14.22,14.22,0,0,1,230.08,256.28Z"/><path d="M157,206.86c0,5.1,6.05,9.27,13.49,9.27S184,212,184,206.86V160.18c0-14.73,17-27.18,37.18-27.18s37.17,12.45,37.17,27.18v46.67c0,5.11,6,9.28,13.49,9.28s13.47-4.17,13.47-9.28V160.18c0-29.85-28.76-54.15-64.13-54.15S157,130.33,157,160.18v46.68Z"/><polygon class="a" points="351.05 103.82 368.2 118.78 387.72 107.08 378.8 128.02 395.95 142.98 373.29 140.97 364.37 161.91 359.28 139.72 336.6 137.7 356.13 126.02 351.05 103.82"/></svg>