<svg xmlns="http://www.w3.org/2000/svg" xmlns:xlink="http://www.w3.org/1999/xlink" width="56" height="18" viewBox="0 0 56 18">
    <defs>
        <path id="a" d="M0 17.938V0h56v17.938z"/>
    </defs>
    <g fill="none" fill-rule="evenodd">
        <mask id="b" fill="#fff">
            <use xlink:href="#a"/>
        </mask>
        <path fill="#011340" d="M27.728.317l-3.742 17.35h-4.525L23.204.317h4.524zM46.766 11.52l2.382-6.515 1.371 6.515h-3.753zm5.049 6.147H56L52.348.317h-3.864c-.868 0-1.6.501-1.926 1.273l-6.789 16.077h4.752l.943-2.591h5.806l.545 2.59zm-11.81-5.665c.02-4.579-6.385-4.831-6.34-6.877.013-.623.611-1.284 1.919-1.453.649-.084 2.435-.149 4.462.776L40.84.77C39.75.377 38.35 0 36.607 0c-4.472 0-7.62 2.359-7.647 5.736-.028 2.497 2.247 3.89 3.962 4.72 1.762.851 2.355 1.396 2.347 2.156-.011 1.165-1.406 1.678-2.707 1.699-2.276.035-3.596-.61-4.648-1.096l-.82 3.801c1.057.482 3.008.9 5.033.922 4.753 0 7.863-2.33 7.878-5.936zM21.262.317l-7.331 17.35H9.147L5.54 3.82c-.22-.853-.41-1.165-1.076-1.524C3.377 1.71 1.58 1.162 0 .82L.108.317h7.7c.98 0 1.863.648 2.086 1.769l1.906 10.04L16.509.317h4.753z" mask="url(#b)"/>
    </g>
</svg>
